# xmcd CD database file
#
# Track frame offsets:
#	150
#	83982
#	170405
#	225210
#	254241
#
# Disc length: 3601 seconds
#
# Revision: 0
# Processed by: cddbd v1.5.2PL0 Copyright (c) Steve Scherf et al.
# Submitted via: CDex 1.70beta2
#
DISCID=370e0f05
DTITLE=Joe Morris - Simon H Fell - Alex Ward - The Necessary and the Possible
DYEAR=2009
DGENRE=Jazz
TTITLE0=Improviseront
TTITLE1=Auront Improvise
TTITLE2=Improvisaient
TTITLE3=Improviserent
TTITLE4=Eurent Improvise
EXTD=YEAR: 2009
EXTT0=
EXTT1=
EXTT2=
EXTT3=
EXTT4=
PLAYORDER=
